<svg xmlns="http://www.w3.org/2000/svg" xmlns:xlink="http://www.w3.org/1999/xlink" width="159" height="144" viewBox="0 0 159 144">
  <defs>
    <clipPath id="clip-path">
      <rect width="159" height="144" fill="none"/>
    </clipPath>
  </defs>
  <g id="Group_16" data-name="Group 16" transform="translate(-1353 -738)">
    <g id="Repeat_Grid_1" data-name="Repeat Grid 1" transform="translate(1353 738)" clip-path="url(#clip-path)">
      <g transform="translate(-24 -19)">
        <circle id="Ellipse_1" data-name="Ellipse 1" cx="2.5" cy="2.5" r="2.5" transform="translate(24 19)" opacity="0.7"/>
        <path id="Path_11" data-name="Path 11" d="M2.5,0A2.5,2.5,0,1,1,0,2.5,2.5,2.5,0,0,1,2.5,0Z" transform="translate(24 39)" fill="#ffce21" opacity="0.7"/>
        <circle id="Ellipse_2" data-name="Ellipse 2" cx="2.5" cy="2.5" r="2.5" transform="translate(47 19)" fill="#ffce21" opacity="0.7"/>
        <circle id="Ellipse_3" data-name="Ellipse 3" cx="2.5" cy="2.5" r="2.5" transform="translate(47 39)" opacity="0.7"/>
      </g>
      <g transform="translate(24 -19)">
        <circle id="Ellipse_1-2" data-name="Ellipse 1" cx="2.5" cy="2.5" r="2.5" transform="translate(24 19)" opacity="0.7"/>
        <path id="Path_11-2" data-name="Path 11" d="M2.5,0A2.5,2.5,0,1,1,0,2.5,2.5,2.5,0,0,1,2.5,0Z" transform="translate(24 39)" fill="#ffce21" opacity="0.7"/>
        <circle id="Ellipse_2-2" data-name="Ellipse 2" cx="2.5" cy="2.5" r="2.5" transform="translate(47 19)" fill="#ffce21" opacity="0.7"/>
        <circle id="Ellipse_3-2" data-name="Ellipse 3" cx="2.5" cy="2.5" r="2.5" transform="translate(47 39)" opacity="0.7"/>
      </g>
      <g transform="translate(72 -19)">
        <circle id="Ellipse_1-3" data-name="Ellipse 1" cx="2.5" cy="2.5" r="2.5" transform="translate(24 19)" opacity="0.7"/>
        <path id="Path_11-3" data-name="Path 11" d="M2.5,0A2.5,2.5,0,1,1,0,2.5,2.5,2.5,0,0,1,2.5,0Z" transform="translate(24 39)" fill="#ffce21" opacity="0.7"/>
        <circle id="Ellipse_2-3" data-name="Ellipse 2" cx="2.5" cy="2.5" r="2.5" transform="translate(47 19)" fill="#ffce21" opacity="0.7"/>
        <circle id="Ellipse_3-3" data-name="Ellipse 3" cx="2.5" cy="2.5" r="2.5" transform="translate(47 39)" opacity="0.7"/>
      </g>
      <g transform="translate(120 -19)">
        <circle id="Ellipse_1-4" data-name="Ellipse 1" cx="2.5" cy="2.5" r="2.5" transform="translate(24 19)" opacity="0.7"/>
        <path id="Path_11-4" data-name="Path 11" d="M2.5,0A2.5,2.5,0,1,1,0,2.5,2.5,2.5,0,0,1,2.5,0Z" transform="translate(24 39)" fill="#ffce21" opacity="0.7"/>
        <circle id="Ellipse_2-4" data-name="Ellipse 2" cx="2.5" cy="2.5" r="2.5" transform="translate(47 19)" fill="#ffce21" opacity="0.7"/>
        <circle id="Ellipse_3-4" data-name="Ellipse 3" cx="2.5" cy="2.5" r="2.5" transform="translate(47 39)" opacity="0.7"/>
      </g>
      <g transform="translate(-24 25)">
        <circle id="Ellipse_1-5" data-name="Ellipse 1" cx="2.5" cy="2.5" r="2.5" transform="translate(24 19)" opacity="0.7"/>
        <path id="Path_11-5" data-name="Path 11" d="M2.5,0A2.5,2.5,0,1,1,0,2.5,2.5,2.5,0,0,1,2.5,0Z" transform="translate(24 39)" fill="#ffce21" opacity="0.7"/>
        <circle id="Ellipse_2-5" data-name="Ellipse 2" cx="2.5" cy="2.5" r="2.5" transform="translate(47 19)" fill="#ffce21" opacity="0.7"/>
        <circle id="Ellipse_3-5" data-name="Ellipse 3" cx="2.5" cy="2.5" r="2.5" transform="translate(47 39)" opacity="0.7"/>
      </g>
      <g transform="translate(24 25)">
        <circle id="Ellipse_1-6" data-name="Ellipse 1" cx="2.5" cy="2.5" r="2.5" transform="translate(24 19)" opacity="0.7"/>
        <path id="Path_11-6" data-name="Path 11" d="M2.5,0A2.5,2.5,0,1,1,0,2.5,2.5,2.5,0,0,1,2.5,0Z" transform="translate(24 39)" fill="#ffce21" opacity="0.7"/>
        <circle id="Ellipse_2-6" data-name="Ellipse 2" cx="2.5" cy="2.5" r="2.5" transform="translate(47 19)" fill="#ffce21" opacity="0.7"/>
        <circle id="Ellipse_3-6" data-name="Ellipse 3" cx="2.5" cy="2.5" r="2.5" transform="translate(47 39)" opacity="0.7"/>
      </g>
      <g transform="translate(72 25)">
        <circle id="Ellipse_1-7" data-name="Ellipse 1" cx="2.5" cy="2.5" r="2.5" transform="translate(24 19)" opacity="0.7"/>
        <path id="Path_11-7" data-name="Path 11" d="M2.5,0A2.5,2.5,0,1,1,0,2.5,2.5,2.5,0,0,1,2.5,0Z" transform="translate(24 39)" fill="#ffce21" opacity="0.7"/>
        <circle id="Ellipse_2-7" data-name="Ellipse 2" cx="2.5" cy="2.5" r="2.5" transform="translate(47 19)" fill="#ffce21" opacity="0.7"/>
        <circle id="Ellipse_3-7" data-name="Ellipse 3" cx="2.5" cy="2.5" r="2.5" transform="translate(47 39)" opacity="0.7"/>
      </g>
      <g transform="translate(120 25)">
        <circle id="Ellipse_1-8" data-name="Ellipse 1" cx="2.5" cy="2.5" r="2.5" transform="translate(24 19)" opacity="0.7"/>
        <path id="Path_11-8" data-name="Path 11" d="M2.5,0A2.5,2.5,0,1,1,0,2.5,2.5,2.5,0,0,1,2.5,0Z" transform="translate(24 39)" fill="#ffce21" opacity="0.7"/>
        <circle id="Ellipse_2-8" data-name="Ellipse 2" cx="2.5" cy="2.5" r="2.5" transform="translate(47 19)" fill="#ffce21" opacity="0.7"/>
        <circle id="Ellipse_3-8" data-name="Ellipse 3" cx="2.5" cy="2.5" r="2.5" transform="translate(47 39)" opacity="0.7"/>
      </g>
      <g transform="translate(-24 69)">
        <circle id="Ellipse_1-9" data-name="Ellipse 1" cx="2.5" cy="2.5" r="2.5" transform="translate(24 19)" opacity="0.7"/>
        <path id="Path_11-9" data-name="Path 11" d="M2.5,0A2.5,2.5,0,1,1,0,2.5,2.5,2.5,0,0,1,2.5,0Z" transform="translate(24 39)" fill="#ffce21" opacity="0.7"/>
        <circle id="Ellipse_2-9" data-name="Ellipse 2" cx="2.5" cy="2.5" r="2.5" transform="translate(47 19)" fill="#ffce21" opacity="0.7"/>
        <circle id="Ellipse_3-9" data-name="Ellipse 3" cx="2.5" cy="2.5" r="2.5" transform="translate(47 39)" opacity="0.7"/>
      </g>
      <g transform="translate(24 69)">
        <circle id="Ellipse_1-10" data-name="Ellipse 1" cx="2.5" cy="2.5" r="2.5" transform="translate(24 19)" opacity="0.7"/>
        <path id="Path_11-10" data-name="Path 11" d="M2.5,0A2.5,2.5,0,1,1,0,2.5,2.5,2.5,0,0,1,2.5,0Z" transform="translate(24 39)" fill="#ffce21" opacity="0.7"/>
        <circle id="Ellipse_2-10" data-name="Ellipse 2" cx="2.5" cy="2.5" r="2.5" transform="translate(47 19)" fill="#ffce21" opacity="0.7"/>
        <circle id="Ellipse_3-10" data-name="Ellipse 3" cx="2.5" cy="2.5" r="2.5" transform="translate(47 39)" opacity="0.7"/>
      </g>
      <g transform="translate(72 69)">
        <circle id="Ellipse_1-11" data-name="Ellipse 1" cx="2.5" cy="2.5" r="2.5" transform="translate(24 19)" opacity="0.7"/>
        <path id="Path_11-11" data-name="Path 11" d="M2.5,0A2.5,2.5,0,1,1,0,2.5,2.5,2.5,0,0,1,2.5,0Z" transform="translate(24 39)" fill="#ffce21" opacity="0.7"/>
        <circle id="Ellipse_2-11" data-name="Ellipse 2" cx="2.5" cy="2.5" r="2.5" transform="translate(47 19)" fill="#ffce21" opacity="0.7"/>
        <circle id="Ellipse_3-11" data-name="Ellipse 3" cx="2.5" cy="2.5" r="2.5" transform="translate(47 39)" opacity="0.7"/>
      </g>
      <g transform="translate(120 69)">
        <circle id="Ellipse_1-12" data-name="Ellipse 1" cx="2.5" cy="2.5" r="2.5" transform="translate(24 19)" opacity="0.7"/>
        <path id="Path_11-12" data-name="Path 11" d="M2.5,0A2.5,2.5,0,1,1,0,2.5,2.5,2.5,0,0,1,2.5,0Z" transform="translate(24 39)" fill="#ffce21" opacity="0.7"/>
        <circle id="Ellipse_2-12" data-name="Ellipse 2" cx="2.5" cy="2.5" r="2.5" transform="translate(47 19)" fill="#ffce21" opacity="0.7"/>
        <circle id="Ellipse_3-12" data-name="Ellipse 3" cx="2.5" cy="2.5" r="2.5" transform="translate(47 39)" opacity="0.7"/>
      </g>
      <g transform="translate(-24 113)">
        <circle id="Ellipse_1-13" data-name="Ellipse 1" cx="2.5" cy="2.5" r="2.5" transform="translate(24 19)" opacity="0.7"/>
        <path id="Path_11-13" data-name="Path 11" d="M2.5,0A2.5,2.5,0,1,1,0,2.5,2.5,2.5,0,0,1,2.5,0Z" transform="translate(24 39)" fill="#ffce21" opacity="0.7"/>
        <circle id="Ellipse_2-13" data-name="Ellipse 2" cx="2.5" cy="2.5" r="2.5" transform="translate(47 19)" fill="#ffce21" opacity="0.7"/>
        <circle id="Ellipse_3-13" data-name="Ellipse 3" cx="2.5" cy="2.5" r="2.5" transform="translate(47 39)" opacity="0.7"/>
      </g>
      <g transform="translate(24 113)">
        <circle id="Ellipse_1-14" data-name="Ellipse 1" cx="2.5" cy="2.5" r="2.5" transform="translate(24 19)" opacity="0.7"/>
        <path id="Path_11-14" data-name="Path 11" d="M2.5,0A2.5,2.5,0,1,1,0,2.5,2.5,2.5,0,0,1,2.5,0Z" transform="translate(24 39)" fill="#ffce21" opacity="0.7"/>
        <circle id="Ellipse_2-14" data-name="Ellipse 2" cx="2.5" cy="2.5" r="2.5" transform="translate(47 19)" fill="#ffce21" opacity="0.7"/>
        <circle id="Ellipse_3-14" data-name="Ellipse 3" cx="2.5" cy="2.5" r="2.5" transform="translate(47 39)" opacity="0.7"/>
      </g>
      <g transform="translate(72 113)">
        <circle id="Ellipse_1-15" data-name="Ellipse 1" cx="2.5" cy="2.5" r="2.5" transform="translate(24 19)" opacity="0.7"/>
        <path id="Path_11-15" data-name="Path 11" d="M2.5,0A2.5,2.5,0,1,1,0,2.5,2.5,2.5,0,0,1,2.5,0Z" transform="translate(24 39)" fill="#ffce21" opacity="0.7"/>
        <circle id="Ellipse_2-15" data-name="Ellipse 2" cx="2.5" cy="2.5" r="2.5" transform="translate(47 19)" fill="#ffce21" opacity="0.7"/>
        <circle id="Ellipse_3-15" data-name="Ellipse 3" cx="2.5" cy="2.5" r="2.5" transform="translate(47 39)" opacity="0.7"/>
      </g>
      <g transform="translate(120 113)">
        <circle id="Ellipse_1-16" data-name="Ellipse 1" cx="2.5" cy="2.5" r="2.5" transform="translate(24 19)" opacity="0.7"/>
        <path id="Path_11-16" data-name="Path 11" d="M2.5,0A2.5,2.5,0,1,1,0,2.5,2.5,2.5,0,0,1,2.5,0Z" transform="translate(24 39)" fill="#ffce21" opacity="0.7"/>
        <circle id="Ellipse_2-16" data-name="Ellipse 2" cx="2.5" cy="2.5" r="2.5" transform="translate(47 19)" fill="#ffce21" opacity="0.7"/>
        <circle id="Ellipse_3-16" data-name="Ellipse 3" cx="2.5" cy="2.5" r="2.5" transform="translate(47 39)" opacity="0.7"/>
      </g>
    </g>
    <g id="Group_10" data-name="Group 10" transform="translate(-74.434 530)">
      <rect id="Rectangle_55" data-name="Rectangle 55" width="4.948" height="20.851" transform="translate(1554.935 221.691) rotate(45)" fill="#ffce21"/>
      <rect id="Rectangle_56" data-name="Rectangle 56" width="4.948" height="20.851" transform="translate(1558.433 236.435) rotate(135)" fill="#ffce21"/>
    </g>
    <g id="Group_15" data-name="Group 15" transform="translate(-145.434 618)">
      <rect id="Rectangle_55-2" data-name="Rectangle 55" width="4.948" height="20.851" transform="translate(1554.935 221.691) rotate(45)" fill="#ffce21"/>
      <rect id="Rectangle_56-2" data-name="Rectangle 56" width="4.948" height="20.851" transform="translate(1558.433 236.435) rotate(135)" fill="#ffce21"/>
    </g>
  </g>
</svg>
