<svg xmlns="http://www.w3.org/2000/svg" width="20.339" height="20.339" viewBox="0 0 20.339 20.339">
  <path id="Path_17" data-name="Path 17" d="M891.839,173v15.981h-8.717l-5.811,4.358v-4.358H871.5V173Zm-5.085,3.632v-1.453H885.3v1.453h-2.179v1.453h3.6a8.57,8.57,0,0,1-.887,3.153c-.092-.109-.18-.22-.267-.332a11.123,11.123,0,0,1-1.034-1.622l-.041-.078-1.292.664.043.084.046.087a12.139,12.139,0,0,0,1.749,2.5q-.216.294-.455.57a9.175,9.175,0,0,1-.994.986c-.155.131-.315.256-.478.378l-.194.138-.2.134.8,1.212a10.483,10.483,0,0,0,2.584-2.419,6.859,6.859,0,0,0,1.167.754,5.968,5.968,0,0,0,.692.292l.481-1.371a4.266,4.266,0,0,1-.447-.182,5.388,5.388,0,0,1-1.093-.713,10.005,10.005,0,0,0,1.271-4.23h.755v-1.453Zm-9.443.726h-.958l-3.113,7.264h1.581l.312-.726.312-.726h3.735l.623,1.453h1.581l-3.113-7.264Zm-1.245,4.358h2.49l-1.245-2.906Z" transform="translate(-871.5 -173)" fill-rule="evenodd"/>
</svg>
